# ProBuilder 4.5.2
# https://unity3d.com/unity/features/worldbuilding/probuilder
# 23/05/2022 15:46:02

mtllib ./Ramp.mtl
o Ramp

g Ramp
v 5 0 0
v 5 0 12.5
v -2.5 0 0
v -2.5 0 12.5
v 5 0 25
v -2.5 0 25
v 5 0 37.5
v -2.5 0 37.5
v 5 0 50
v -2.5 0 50
v -5 0 0
v -5 0 12.5
v -5 0 25
v -5 0 37.5
v -5 0 50
v -7.5 0 0
v -7.5 0 12.5
v -7.5 0 25
v -7.5 0 37.5
v -7.5 0 50
v -10 0 0
v -10 0 12.5
v -10 0 25
v -10 0 37.5
v -10 0 50
v -9.4 -0.5 -0.001340866
v -9.890676 -0.4879542 -0.001340866
v -9.4 -0.5 49.99866
v -9.890676 -0.4879542 49.99866
v -9.866142 0.01144314 -0.001340866
v -9.4 5.960464E-08 -0.001340866
v -9.866142 0.01144314 49.99866
v -9.4 5.960464E-08 49.99866
v -10.38017 -0.4518472 -0.001340866
v -10.38017 -0.4518472 49.99866
v -10.33116 0.04574478 -0.001340866
v -10.33116 0.04574478 49.99866
v -10.8673 -0.3917657 -0.001340866
v -10.8673 -0.3917657 49.99866
v -10.79394 0.1028231 -0.001340866
v -10.79394 0.1028231 49.99866
v -11.3509 -0.307853 -0.001340866
v -11.3509 -0.307853 49.99866
v -11.25336 0.1825397 -0.001340866
v -11.25336 0.1825397 49.99866
v -11.8298 -0.2003129 -0.001340866
v -11.8298 -0.2003129 49.99866
v -11.70831 0.2847033 -0.001340866
v -11.70831 0.2847033 49.99866
v -12.30285 -0.06940389 -0.001340866
v -12.30285 -0.06940389 49.99866
v -12.1577 0.409066 -0.001340866
v -12.1577 0.409066 49.99866
v -12.7689 0.08455896 -0.001340866
v -12.7689 0.08455896 49.99866
v -12.60045 0.555331 -0.001340866
v -12.60045 0.555331 49.99866
v -13.22684 0.2612042 -0.001340866
v -13.22684 0.2612042 49.99866
v -13.03549 0.7231441 -0.001340866
v -13.03549 0.7231441 49.99866
v -13.67555 0.4601064 -0.001340866
v -13.67555 0.4601064 49.99866
v -13.46177 0.9121013 -0.001340866
v -13.46177 0.9121013 49.99866
v -14.11397 0.6807866 -0.001340866
v -14.11397 0.6807866 49.99866
v -13.87827 1.121747 -0.001340866
v -13.87827 1.121747 49.99866
v -14.54103 0.9227138 -0.001340866
v -14.54103 0.9227138 49.99866
v -14.28398 1.351578 -0.001340866
v -14.28398 1.351578 49.99866
v -14.9557 1.185303 -0.001340866
v -14.9557 1.185303 49.99866
v -14.67792 1.601039 -0.001340866
v -14.67792 1.601039 49.99866
v -15.35699 1.467925 -0.001340866
v -15.35699 1.467925 49.99866
v -15.05914 1.869528 -0.001340866
v -15.05914 1.869528 49.99866
v -15.74393 1.769894 -0.001340866
v -15.74393 1.769894 49.99866
v -15.42674 2.1564 -0.001340866
v -15.42674 2.1564 49.99866
v -16.11559 2.090488 -0.001340866
v -16.11559 2.090488 49.99866
v -15.77981 2.460963 -0.001340866
v -15.77981 2.460963 49.99866
v -16.47107 2.428931 -0.001340866
v -16.47107 2.428931 49.99866
v -16.11752 2.782485 -0.001340866
v -16.11752 2.782485 49.99866
v -16.80951 2.78441 -0.001340866
v -16.80951 2.78441 49.99866
v -16.43904 3.120189 -0.001340866
v -16.43904 3.120189 49.99866
v -17.13011 3.156067 -0.001340866
v -17.13011 3.156067 49.99866
v -16.7436 3.473264 -0.001340866
v -16.7436 3.473264 49.99866
v -17.43208 3.543007 -0.001340866
v -17.43208 3.543007 49.99866
v -17.03047 3.840857 -0.001340866
v -17.03047 3.840857 49.99866
v -17.7147 3.944298 -0.001340866
v -17.7147 3.944298 49.99866
v -17.29896 4.222082 -0.001340866
v -17.29896 4.222082 49.99866
v -17.97729 4.358972 -0.001340866
v -17.97729 4.358972 49.99866
v -17.54842 4.616022 -0.001340866
v -17.54842 4.616022 49.99866
v -18.21921 4.786032 -0.001340866
v -18.21921 4.786032 49.99866
v -17.77825 5.021729 -0.001340866
v -17.77825 5.021729 49.99866
v -18.43989 5.224448 -0.001340866
v -18.43989 5.224448 49.99866
v -17.9879 5.438226 -0.001340866
v -17.9879 5.438226 49.99866
v -18.6388 5.673166 -0.001340866
v -18.6388 5.673166 49.99866
v -18.17686 5.864508 -0.001340866
v -18.17686 5.864508 49.99866
v -18.81544 6.131102 -0.001340866
v -18.81544 6.131102 49.99866
v -18.34467 6.299546 -0.001340866
v -18.34467 6.299546 49.99866
v -18.96941 6.597153 -0.001340866
v -18.96941 6.597153 49.99866
v -18.49094 6.742296 -0.001340866
v -18.49094 6.742296 49.99866
v -19.10032 7.070198 -0.001340866
v -19.10032 7.070198 49.99866
v -18.6153 7.191689 -0.001340866
v -18.6153 7.191689 49.99866
v -19.20786 7.549095 -0.001340866
v -19.20786 7.549095 49.99866
v -18.71746 7.646643 -0.001340866
v -18.71746 7.646643 49.99866
v -19.29177 8.032695 -0.001340866
v -19.29177 8.032695 49.99866
v -18.79718 8.106061 -0.001340866
v -18.79718 8.106061 49.99866
v -19.35185 8.519828 -0.001340866
v -19.35185 8.519828 49.99866
v -18.85426 8.568838 -0.001340866
v -18.85426 8.568838 49.99866
v -19.38795 9.009323 -0.001340866
v -19.38795 9.009323 49.99866
v -18.88856 9.033857 -0.001340866
v -18.88856 9.033857 49.99866
v -19.4 9.499999 -0.001340866
v -19.4 9.499999 49.99866
v -18.9 9.499999 -0.001340866
v -18.9 9.499999 49.99866
v 5 3.166667 50
v -6.5 0 50
v -6.5 3.166667 50
v 5 6.333333 50
v -6.5 6.333333 50
v 5 9.5 50
v -6.5 9.5 50
v -13 0 50
v -13 3.166667 50
v -13 6.333333 50
v -13 9.5 50
v -19.5 0 50
v -19.5 3.166667 50
v -19.5 6.333333 50
v -19.5 9.5 50

vt -5.1 0
vt -5.1 12.5
vt 2.4 0
vt 2.4 12.5
vt -5.1 25
vt 2.4 25
vt -5.1 37.5
vt 2.4 37.5
vt -5.1 50
vt 2.4 50
vt 4.9 0
vt 4.9 12.5
vt 4.9 25
vt 4.9 37.5
vt 4.9 50
vt 7.4 0
vt 7.4 12.5
vt 7.4 25
vt 7.4 37.5
vt 7.4 50
vt 9.9 0
vt 9.9 12.5
vt 9.9 25
vt 9.9 37.5
vt 9.9 50
vt -9.536743E-07 50
vt 0.3554821 50
vt -4.768372E-06 0
vt 0.3554783 0
vt 0.6912584 1.907349E-06
vt 0.3535538 1.907349E-06
vt 0.6912584 50
vt 0.3535538 50
vt 0.7271385 50
vt 0.7271347 0
vt 1.044332 1.907349E-06
vt 1.044332 50
vt 0.7098656 49.99999
vt 1.114074 50.00013
vt 1.131343 5.722046E-06
vt 1.411925 1.907349E-06
vt 1.411925 50
vt 1.515369 50
vt 1.114071 0
vt 1.515366 0
vt 1.79315 1.907349E-06
vt 1.79315 50
vt 1.498096 49.99999
vt 1.93004 50.00014
vt 1.947309 7.629395E-06
vt 2.187092 1.907349E-06
vt 2.187092 50
vt 2.357104 50
vt 1.930037 0
vt 2.3571 0
vt 2.592798 1.907349E-06
vt 2.592798 50
vt 2.795522 50
vt 2.795518 0
vt 3.009294 1.907349E-06
vt 3.009294 50
vt 3.244238 50
vt 3.244234 0
vt 3.435575 1.907349E-06
vt 3.435575 50
vt 3.226965 49.99999
vt 3.702169 50.00016
vt 3.719439 7.629395E-06
vt 3.870615 1.907349E-06
vt 3.870615 50
vt 4.168226 50
vt 3.702166 0
vt 4.168222 0
vt 4.313363 1.907349E-06
vt 4.313363 50
vt 4.64127 50
vt 4.641266 0
vt 4.762757 1.907349E-06
vt 4.762757 50
vt 4.623997 49.99999
vt 5.120164 50.00017
vt 5.137433 3.814697E-06
vt 5.21771 1.907349E-06
vt 5.21771 50
vt 5.603767 50
vt 5.120159 0
vt 5.603764 0
vt 5.677129 1.907349E-06
vt 5.677129 50
vt 6.090899 50
vt 6.090896 0
vt 6.139905 1.907349E-06
vt 6.139905 50
vt 6.580396 50
vt 6.580392 0
vt 6.604926 1.907349E-06
vt 6.604926 50
vt 7.071072 50
vt 7.071068 0
vt 7.07107 50
vt 7.561749 50
vt 7.561745 0
vt 7.537209 1.907349E-06
vt 7.537212 50
vt 7.561745 50
vt 8.051243 50
vt 8.051239 0
vt 8.002232 1.907349E-06
vt 8.002235 50
vt 8.538378 50
vt 8.538374 0
vt 8.465008 1.907349E-06
vt 8.465012 50
vt 9.021975 50
vt 9.021971 0
vt 8.924425 1.907349E-06
vt 8.924429 50
vt 9.021972 50
vt 9.500873 50
vt 9.500869 0
vt 9.379377 1.907349E-06
vt 9.379381 50
vt 9.500869 50
vt 9.973918 50
vt 9.973914 0
vt 9.828773 1.907349E-06
vt 9.828775 50
vt 10.43997 50
vt 10.43997 0
vt 10.27152 1.907349E-06
vt 10.27153 50
vt 10.43997 50
vt 10.89791 50
vt 10.8979 0
vt 10.70656 1.907349E-06
vt 10.70656 50
vt 11.34662 50
vt 11.34662 0
vt 11.13284 1.907349E-06
vt 11.13284 50
vt 11.78504 50
vt 11.78504 0
vt 11.54934 1.907349E-06
vt 11.54934 50
vt 11.78504 50
vt 12.2121 50
vt 12.2121 0
vt 11.95504 1.907349E-06
vt 11.95505 50
vt 12.62677 50
vt 12.62677 0
vt 12.34899 1.907349E-06
vt 12.34899 50
vt 13.02806 50
vt 13.02806 0
vt 12.73021 1.907349E-06
vt 12.73021 50
vt 13.415 50
vt 13.415 0
vt 13.09781 1.907349E-06
vt 13.09781 50
vt 13.78666 50
vt 13.415 0
vt 13.78666 0
vt 13.45088 1.907349E-06
vt 13.45088 50
vt 14.14214 50
vt 14.14213 0
vt 13.78858 1.907349E-06
vt 13.78858 50
vt 0.6908512 50.01656
vt 0.0004072189 49.98342
vt 0.6567154 49.99915
vt 0.6908512 -0.01656142
vt 0.6567154 0.00084804
vt 0.0004072189 0.01658143
vt 0.3881788 50.00241
vt 1.040856 50.04712
vt 0.3589668 49.95271
vt 0.9790115 49.99518
vt 1.040856 -0.04711899
vt 0.3881788 -0.002412111
vt 0.9790115 0.004818365
vt 0.3589668 0.04728995
vt 0.7887926 50.0076
vt 1.402775 50.07418
vt 0.7363396 49.92537
vt 1.319622 49.98861
vt 1.402775 -0.07418251
vt 0.7887926 -0.007604674
vt 1.319622 0.0113842
vt 0.7363396 0.07463294
vt 1.200911 50.01507
vt 1.776202 50.09768
vt 1.131167 49.90149
vt 1.677695 49.97997
vt 1.776202 -0.09767444
vt 1.200911 -0.01506761
vt 1.677695 0.02003358
vt 1.131167 0.09851021
vt 1.623576 50.0243
vt 2.160697 50.11754
vt 1.542051 49.88116
vt 2.052316 49.96973
vt 2.160697 -0.1175382
vt 1.623576 -0.02429949
vt 2.052315 0.03026503
vt 1.542051 0.1188416
vt 2.055838 50.03481
vt 2.55578 50.13376
vt 1.967565 49.8644
vt 2.442511 49.95841
vt 2.55578 -0.1337647
vt 2.055838 -0.03481282
vt 2.442511 0.04159015
vt 1.967565 0.1355948
vt 2.49674 50.04613
vt 2.960937 50.14639
vt 2.406249 49.85123
vt 2.847238 49.94646
vt 2.960937 -0.1463829
vt 2.49674 -0.04613096
vt 2.847238 0.05353644
vt 2.406249 0.1487762
vt 2.945344 50.0578
vt 3.375604 50.15547
vt 2.856633 49.84156
vt 3.265379 49.93435
vt 3.375606 -0.1554674
vt 2.945345 -0.05779484
vt 3.26538 0.06565151
vt 2.856634 0.1584399
vt 3.400736 50.06937
vt 3.799183 50.16114
vt 3.317237 49.8353
vt 3.695762 49.92249
vt 3.799183 -0.1611457
vt 3.400736 -0.06937265
vt 3.695761 0.07750744
vt 3.317237 0.1646917
vt 3.86201 50.08045
vt 4.23102 50.16359
vt 3.786573 49.83232
vt 4.137133 49.91129
vt 4.23102 -0.1635887
vt 3.86201 -0.08045638
vt 4.137134 0.08870655
vt 3.786574 0.1676822
vt 4.328289 50.09068
vt 4.670407 50.16302
vt 4.263174 49.83239
vt 4.588187 49.90111
vt 4.670408 -0.1630166
vt 4.328289 -0.09067798
vt 4.588188 0.09889245
vt 4.263173 0.1676146
vt 4.798717 50.0997
vt 5.11659 50.15969
vt 4.74558 49.83527
vt 5.047558 49.89225
vt 5.11659 -0.1596868
vt 4.798717 -0.09970474
vt 5.047558 0.1077472
vt 4.74558 0.1647296
vt 5.27246 50.10725
vt 5.568741 50.1539
vt 5.232368 49.84068
vt 5.513834 49.88499
vt 5.56874 -0.1538991
vt 5.272458 -0.1072577
vt 5.513834 0.1150055
vt 5.232367 0.1593152
vt 5.748693 50.11311
vt 6.025978 50.14598
vt 5.722139 49.84832
vt 5.985561 49.87955
vt 6.025978 -0.1459825
vt 5.748692 -0.1131029
vt 5.985561 0.12045
vt 5.722139 0.1516851
vt 6.226607 50.11707
vt 6.487359 50.13629
vt 6.213551 49.85781
vt 6.461265 49.87608
vt 6.487359 -0.1362919
vt 6.226608 -0.117067
vt 6.461264 0.1239247
vt 6.213551 0.1421893
vt 6.705412 50.11903
vt 6.951872 50.1252
vt 6.705292 49.86881
vt 6.939428 49.87467
vt 6.951872 -0.1251972
vt 6.705412 -0.1190295
vt 6.939428 0.1253307
vt 6.705292 0.1311891
vt 7.190266 50.1252
vt 7.436724 50.11903
vt 7.202707 49.87467
vt 7.436842 49.86881
vt 7.436724 -0.1190295
vt 7.190266 -0.1251972
vt 7.436844 0.1311882
vt 7.202707 0.1253302
vt 7.654776 50.13629
vt 7.915527 50.11707
vt 7.680874 49.87608
vt 7.928589 49.85781
vt 7.915525 -0.1170657
vt 7.654778 -0.1362917
vt 7.928587 0.1421885
vt 7.680874 0.123925
vt 8.116156 50.14598
vt 8.393444 50.1131
vt 8.156574 49.87955
vt 8.419996 49.84831
vt 8.393444 -0.1131041
vt 8.116156 -0.1459827
vt 8.419996 0.1516862
vt 8.156574 0.1204495
vt 8.573395 50.1539
vt 8.869678 50.10726
vt 8.628302 49.88499
vt 8.909771 49.84068
vt 8.869678 -0.1072578
vt 8.573397 -0.1538987
vt 8.909771 0.1593146
vt 8.628302 0.1150053
vt 9.025549 50.15969
vt 9.34342 50.09971
vt 9.094578 49.89225
vt 9.396555 49.83527
vt 9.343419 -0.09970617
vt 9.025546 -0.1596866
vt 9.396554 0.1647301
vt 9.094577 0.1077485
vt 9.471727 50.16302
vt 9.813847 50.09068
vt 9.553949 49.90111
vt 9.878962 49.83239
vt 9.813847 -0.09067726
vt 9.471727 -0.1630168
vt 9.878963 0.167614
vt 9.553949 0.09889221
vt 9.911116 50.16359
vt 10.28013 50.08046
vt 10.005 49.91129
vt 10.35556 49.83232
vt 10.28013 -0.08045673
vt 9.911116 -0.1635885
vt 10.35556 0.1676822
vt 10.005 0.08870649
vt 10.34295 50.16114
vt 10.7414 50.06937
vt 10.44637 49.92249
vt 10.8249 49.83531
vt 10.7414 -0.06937122
vt 10.34295 -0.1611452
vt 10.8249 0.1646919
vt 10.44637 0.07750559
vt 10.76653 50.15547
vt 11.19679 50.0578
vt 10.87676 49.93435
vt 11.2855 49.84156
vt 11.19679 -0.05779409
vt 10.76653 -0.155467
vt 11.2855 0.1584387
vt 10.87676 0.06565046
vt 11.1812 50.14639
vt 11.6454 50.04613
vt 11.2949 49.94646
vt 11.73589 49.85122
vt 11.6454 -0.04613209
vt 11.1812 -0.1463833
vt 11.73589 0.1487775
vt 11.2949 0.05353832
vt 11.58636 50.13377
vt 12.0863 50.03481
vt 11.69963 49.95841
vt 12.17457 49.8644
vt 12.0863 -0.03481293
vt 11.58636 -0.1337643
vt 12.17457 0.1355953
vt 11.69963 0.04159021
vt 11.98144 50.11754
vt 12.51855 50.0243
vt 12.08982 49.96973
vt 12.60008 49.88116
vt 12.51855 -0.02429962
vt 11.98144 -0.1175399
vt 12.60008 0.1188426
vt 12.08982 0.03026438
vt 12.36593 50.09767
vt 12.94122 50.01506
vt 12.46444 49.97997
vt 13.01097 49.90149
vt 12.94122 -0.01506615
vt 12.36593 -0.09767246
vt 13.01097 0.09850883
vt 12.46444 0.02003241
vt 12.73936 50.07418
vt 13.35334 50.00761
vt 12.82251 49.98862
vt 13.4058 49.92537
vt 13.35334 -0.007604599
vt 12.73936 -0.07418346
vt 13.4058 0.0746336
vt 12.82251 0.01138401
vt 13.10128 50.04712
vt 13.75396 50.00241
vt 13.16313 49.99518
vt 13.78317 49.95271
vt 13.75396 -0.002412796
vt 13.10128 -0.04711628
vt 13.78317 0.04728794
vt 13.16313 0.004818916
vt 13.45129 50.01656
vt 13.48542 49.99915
vt 14.14173 49.98342
vt 13.45128 -0.01656151
vt 14.14173 0.01658058
vt 13.48542 0.0008487701
vt -5.1 3.166667
vt 6.4 0
vt 6.4 3.166667
vt -5.1 6.333333
vt 6.4 6.333333
vt -5.1 9.5
vt 6.4 9.5
vt 12.9 0
vt 12.9 3.166667
vt 12.9 6.333333
vt 12.9 9.5
vt 19.4 0
vt 19.4 3.166667
vt 19.4 6.333333
vt 19.4 9.5

vn 0 1 0
vn -0.02454196 -0.9996988 0
vn 0.02454106 0.9996989 0
vn 1 0 0
vn -0.07356402 -0.9972905 0
vn 0.0735639 0.9972905 0
vn -0.1224091 -0.9924797 0
vn 0.1224112 0.9924795 0
vn -0.170963 -0.9852775 0
vn 0.1709617 0.9852777 0
vn -0.2191008 -0.9757022 0
vn 0.2191021 0.9757019 0
vn -0.2667122 -0.9637762 0
vn 0.2667104 0.9637767 0
vn -0.3136824 -0.949528 0
vn 0.3136821 0.949528 0
vn -0.359894 -0.9329932 0
vn 0.3598954 0.9329927 0
vn -0.4052419 -0.9142095 0
vn 0.4052418 0.9142095 0
vn -0.4496104 -0.8932248 0
vn 0.4496107 0.8932247 0
vn -0.4928999 -0.870086 0
vn 0.4928988 0.8700867 0
vn -0.5349962 -0.8448545 0
vn 0.5349982 0.8448532 0
vn -0.5758088 -0.8175844 0
vn 0.5758072 0.8175855 0
vn -0.6152298 -0.7883478 0
vn 0.6152305 0.7883473 0
vn -0.6531754 -0.7572067 0
vn 0.6531725 0.7572091 0
vn -0.6895379 -0.7242496 0
vn 0.6895403 0.7242474 0
vn -0.7242473 -0.6895404 0
vn 0.7242464 0.6895413 0
vn -0.7572094 -0.6531722 0
vn 0.75721 0.6531715 0
vn -0.7883478 -0.6152298 0
vn 0.7883478 0.6152299 0
vn -0.8175844 -0.5758088 0
vn 0.8175843 0.5758089 0
vn -0.8448525 -0.5349993 0
vn 0.8448531 0.5349984 0
vn -0.8700873 -0.4928976 0
vn 0.8700858 0.4929003 0
vn -0.8932244 -0.4496112 0
vn 0.8932247 0.4496107 0
vn -0.914209 -0.405243 0
vn 0.9142102 0.4052403 0
vn -0.932994 -0.3598919 0
vn 0.9329932 0.359894 0
vn -0.9495267 -0.3136863 0
vn 0.9495268 0.3136858 0
vn -0.9637762 -0.2667122 0
vn 0.9637765 0.2667114 0
vn -0.975702 -0.2191016 0
vn 0.9757031 0.2190972 0
vn -0.9852779 -0.1709607 0
vn 0.9852773 0.170964 0
vn -0.9924797 -0.1224094 0
vn 0.9924797 0.1224092 0
vn -0.9972907 -0.07356207 0
vn 0.9972905 0.07356431 0
vn -0.9996988 -0.02454407 0
vn 0.9996988 0.02454328 0
vn 0 0 1
vn 0 0 -1

usemtl Checker
f 3/3/1 4/4/1 2/2/1 1/1/1
f 4/4/1 6/6/1 5/5/1 2/2/1
f 6/6/1 8/8/1 7/7/1 5/5/1
f 8/8/1 10/10/1 9/9/1 7/7/1
f 11/11/1 12/12/1 4/4/1 3/3/1
f 12/12/1 13/13/1 6/6/1 4/4/1
f 13/13/1 14/14/1 8/8/1 6/6/1
f 14/14/1 15/15/1 10/10/1 8/8/1
f 16/16/1 17/17/1 12/12/1 11/11/1
f 17/17/1 18/18/1 13/13/1 12/12/1
f 18/18/1 19/19/1 14/14/1 13/13/1
f 19/19/1 20/20/1 15/15/1 14/14/1
f 21/21/1 22/22/1 17/17/1 16/16/1
f 22/22/1 23/23/1 18/18/1 17/17/1
f 23/23/1 24/24/1 19/19/1 18/18/1
f 24/24/1 25/25/1 20/20/1 19/19/1
f 28/28/2 29/29/2 27/27/2 26/26/2
f 32/32/3 33/33/3 31/31/3 30/30/3
f 26/28/4 31/31/4 33/33/4 28/26/4
f 29/29/5 35/35/5 34/34/5 27/27/5
f 37/37/6 32/32/6 30/30/6 36/36/6
f 35/35/7 39/40/7 38/39/7 34/38/7
f 41/42/8 37/37/8 36/36/8 40/41/8
f 39/44/9 43/45/9 42/43/9 38/39/9
f 45/47/10 41/42/10 40/41/10 44/46/10
f 43/45/11 47/50/11 46/49/11 42/48/11
f 49/52/12 45/47/12 44/46/12 48/51/12
f 47/54/13 51/55/13 50/53/13 46/49/13
f 53/57/14 49/52/14 48/51/14 52/56/14
f 51/55/15 55/59/15 54/58/15 50/53/15
f 57/61/16 53/57/16 52/56/16 56/60/16
f 55/59/17 59/63/17 58/62/17 54/58/17
f 61/65/18 57/61/18 56/60/18 60/64/18
f 59/63/19 63/68/19 62/67/19 58/66/19
f 65/70/20 61/65/20 60/64/20 64/69/20
f 63/72/21 67/73/21 66/71/21 62/67/21
f 69/75/22 65/70/22 64/69/22 68/74/22
f 67/73/23 71/77/23 70/76/23 66/71/23
f 73/79/24 69/75/24 68/74/24 72/78/24
f 71/77/25 75/82/25 74/81/25 70/80/25
f 77/84/26 73/79/26 72/78/26 76/83/26
f 75/86/27 79/87/27 78/85/27 74/81/27
f 81/89/28 77/84/28 76/83/28 80/88/28
f 79/87/29 83/91/29 82/90/29 78/85/29
f 85/93/30 81/89/30 80/88/30 84/92/30
f 83/91/31 87/95/31 86/94/31 82/90/31
f 89/97/32 85/93/32 84/92/32 88/96/32
f 87/95/33 91/99/33 90/98/33 86/94/33
f 93/98/34 89/97/34 88/96/34 92/99/34
f 91/99/35 95/102/35 94/101/35 90/100/35
f 97/104/36 93/98/36 92/99/36 96/103/36
f 95/102/37 99/107/37 98/106/37 94/105/37
f 101/109/38 97/104/38 96/103/38 100/108/38
f 99/107/39 103/111/39 102/110/39 98/106/39
f 105/113/40 101/109/40 100/108/40 104/112/40
f 103/111/41 107/115/41 106/114/41 102/110/41
f 109/117/42 105/113/42 104/112/42 108/116/42
f 107/115/43 111/120/43 110/119/43 106/118/43
f 113/122/44 109/117/44 108/116/44 112/121/44
f 111/120/45 115/125/45 114/124/45 110/123/45
f 117/127/46 113/122/46 112/121/46 116/126/46
f 115/125/47 119/129/47 118/128/47 114/124/47
f 121/131/48 117/127/48 116/126/48 120/130/48
f 119/129/49 123/134/49 122/133/49 118/132/49
f 125/136/50 121/131/50 120/130/50 124/135/50
f 123/134/51 127/138/51 126/137/51 122/133/51
f 129/140/52 125/136/52 124/135/52 128/139/52
f 127/138/53 131/142/53 130/141/53 126/137/53
f 133/144/54 129/140/54 128/139/54 132/143/54
f 131/142/55 135/147/55 134/146/55 130/145/55
f 137/149/56 133/144/56 132/143/56 136/148/56
f 135/147/57 139/151/57 138/150/57 134/146/57
f 141/153/58 137/149/58 136/148/58 140/152/58
f 139/151/59 143/155/59 142/154/59 138/150/59
f 145/157/60 141/153/60 140/152/60 144/156/60
f 143/155/61 147/159/61 146/158/61 142/154/61
f 149/161/62 145/157/62 144/156/62 148/160/62
f 147/163/63 151/164/63 150/162/63 146/158/63
f 153/166/64 149/161/64 148/160/64 152/165/64
f 151/164/65 155/168/65 154/167/65 150/162/65
f 157/170/66 153/166/66 152/165/66 156/169/66
f 156/169/1 154/168/1 155/167/1 157/170/1
f 33/172/67 32/173/67 29/171/67 28/26/67
f 30/175/68 31/176/68 26/28/68 27/174/68
f 32/179/67 37/180/67 35/178/67 29/177/67
f 36/183/68 30/184/68 27/182/68 34/181/68
f 37/187/67 41/188/67 39/186/67 35/185/67
f 40/191/68 36/192/68 34/190/68 38/189/68
f 41/195/67 45/196/67 43/194/67 39/193/67
f 44/199/68 40/200/68 38/198/68 42/197/68
f 45/203/67 49/204/67 47/202/67 43/201/67
f 48/207/68 44/208/68 42/206/68 46/205/68
f 49/211/67 53/212/67 51/210/67 47/209/67
f 52/215/68 48/216/68 46/214/68 50/213/68
f 53/219/67 57/220/67 55/218/67 51/217/67
f 56/223/68 52/224/68 50/222/68 54/221/68
f 57/227/67 61/228/67 59/226/67 55/225/67
f 60/231/68 56/232/68 54/230/68 58/229/68
f 61/235/67 65/236/67 63/234/67 59/233/67
f 64/239/68 60/240/68 58/238/68 62/237/68
f 65/243/67 69/244/67 67/242/67 63/241/67
f 68/247/68 64/248/68 62/246/68 66/245/68
f 69/251/67 73/252/67 71/250/67 67/249/67
f 72/255/68 68/256/68 66/254/68 70/253/68
f 73/259/67 77/260/67 75/258/67 71/257/67
f 76/263/68 72/264/68 70/262/68 74/261/68
f 77/267/67 81/268/67 79/266/67 75/265/67
f 80/271/68 76/272/68 74/270/68 78/269/68
f 81/275/67 85/276/67 83/274/67 79/273/67
f 84/279/68 80/280/68 78/278/68 82/277/68
f 85/283/67 89/284/67 87/282/67 83/281/67
f 88/287/68 84/288/68 82/286/68 86/285/68
f 89/291/67 93/292/67 91/290/67 87/289/67
f 92/295/68 88/296/68 86/294/68 90/293/68
f 93/299/67 97/300/67 95/298/67 91/297/67
f 96/303/68 92/304/68 90/302/68 94/301/68
f 97/307/67 101/308/67 99/306/67 95/305/67
f 100/311/68 96/312/68 94/310/68 98/309/68
f 101/315/67 105/316/67 103/314/67 99/313/67
f 104/319/68 100/320/68 98/318/68 102/317/68
f 105/323/67 109/324/67 107/322/67 103/321/67
f 108/327/68 104/328/68 102/326/68 106/325/68
f 109/331/67 113/332/67 111/330/67 107/329/67
f 112/335/68 108/336/68 106/334/68 110/333/68
f 113/339/67 117/340/67 115/338/67 111/337/67
f 116/343/68 112/344/68 110/342/68 114/341/68
f 117/347/67 121/348/67 119/346/67 115/345/67
f 120/351/68 116/352/68 114/350/68 118/349/68
f 121/355/67 125/356/67 123/354/67 119/353/67
f 124/359/68 120/360/68 118/358/68 122/357/68
f 125/363/67 129/364/67 127/362/67 123/361/67
f 128/367/68 124/368/68 122/366/68 126/365/68
f 129/371/67 133/372/67 131/370/67 127/369/67
f 132/375/68 128/376/68 126/374/68 130/373/68
f 133/379/67 137/380/67 135/378/67 131/377/67
f 136/383/68 132/384/68 130/382/68 134/381/68
f 137/387/67 141/388/67 139/386/67 135/385/67
f 140/391/68 136/392/68 134/390/68 138/389/68
f 141/395/67 145/396/67 143/394/67 139/393/67
f 144/399/68 140/400/68 138/398/68 142/397/68
f 145/403/67 149/404/67 147/402/67 143/401/67
f 148/407/68 144/408/68 142/406/68 146/405/68
f 149/411/67 153/412/67 151/410/67 147/409/67
f 152/415/68 148/416/68 146/414/68 150/413/68
f 153/418/67 157/419/67 155/167/67 151/417/67
f 156/421/68 152/422/68 150/420/68 154/168/68
f 159/424/68 160/425/68 158/423/68 9/1/68
f 160/425/68 162/427/68 161/426/68 158/423/68
f 162/427/68 164/429/68 163/428/68 161/426/68
f 165/430/68 166/431/68 160/425/68 159/424/68
f 166/431/68 167/432/68 162/427/68 160/425/68
f 167/432/68 168/433/68 164/429/68 162/427/68
f 169/434/68 170/435/68 166/431/68 165/430/68
f 170/435/68 171/436/68 167/432/68 166/431/68
f 171/436/68 172/437/68 168/433/68 167/432/68

