# ProBuilder 4.5.2
# https://unity3d.com/unity/features/worldbuilding/probuilder
# 23/05/2022 16:10:43

mtllib ./Stairs.mtl
o Stairs

g Stairs
v 0 0 0
v 2 0 0
v 0 0.4 0
v 2 0.4 0
v 0 0.4 0.8
v 2 0.4 0.8
v 0 0.8 0.8
v 2 0.8 0.8
v 0 0.8 1.6
v 2 0.8 1.6
v 0 1.2 1.6
v 2 1.2 1.6
v 0 1.2 2.4
v 2 1.2 2.4
v 0 1.6 2.4
v 2 1.6 2.4
v 0 1.6 3.2
v 2 1.6 3.2
v 0 2 3.2
v 2 2 3.2
v 0 2 4
v 2 2 4
v 2 0 0.8
v 2 0 1.6
v 2 0 2.4
v 2 0 3.2
v 2 0 4
v 0 0 0.8
v 0 0 1.6
v 0 0 2.4
v 0 0 3.2
v 0 0 4

vt 0 0
vt -2 0
vt 0 0.4
vt -2 0.4
vt 0 0.8
vt -2 0.8
vt 0 1.6
vt -2 1.6
vt 0 1.2
vt -2 1.2
vt 0 2.4
vt -2 2.4
vt 0 3.2
vt -2 3.2
vt 0 2
vt -2 2
vt 0 4
vt -2 4
vt -0.8 0
vt -0.8 0.4
vt -1.6 0
vt -1.6 0.8
vt -0.8 0.8
vt -2.4 0
vt -2.4 1.2
vt -1.6 1.2
vt -3.2 0
vt -3.2 1.6
vt -2.4 1.6
vt -4 0
vt -4 2
vt -3.2 2
vt 0.8 0
vt 0.8 0.4
vt 1.6 0
vt 1.6 0.8
vt 0.8 0.8
vt 2.4 0
vt 2.4 1.2
vt 1.6 1.2
vt 3.2 0
vt 3.2 1.6
vt 2.4 1.6
vt 4 0
vt 4 2
vt 3.2 2
vt 2 0
vt 2 2

vn 0 0 -1
vn 0 1 0
vn 1 0 0
vn -1 0 0
vn 0 0 1

usemtl Lit
f 6/20/3 8/23/3 10/22/3
f 10/22/3 12/26/3 14/25/3
f 14/25/3 16/29/3 18/28/3
f 18/28/3 20/32/3 22/31/3
f 9/36/4 7/37/4 5/34/4
f 13/39/4 11/40/4 9/36/4
f 17/42/4 15/43/4 13/39/4
f 21/45/4 19/46/4 17/42/4
f 4/4/1 2/2/1 1/1/1
f 1/1/1 3/3/1 4/4/1
f 6/6/2 4/2/2 3/1/2
f 3/1/2 5/5/2 6/6/2
f 8/6/1 6/4/1 5/3/1
f 5/3/1 7/5/1 8/6/1
f 10/8/2 8/6/2 7/5/2
f 7/5/2 9/7/2 10/8/2
f 12/10/1 10/6/1 9/5/1
f 9/5/1 11/9/1 12/10/1
f 14/12/2 12/8/2 11/7/2
f 11/7/2 13/11/2 14/12/2
f 16/8/1 14/10/1 13/9/1
f 13/9/1 15/7/1 16/8/1
f 18/14/2 16/12/2 15/11/2
f 15/11/2 17/13/2 18/14/2
f 20/16/1 18/8/1 17/7/1
f 17/7/1 19/15/1 20/16/1
f 22/18/2 20/14/2 19/13/2
f 19/13/2 21/17/2 22/18/2
f 6/20/3 23/19/3 2/1/3
f 2/1/3 4/3/3 6/20/3
f 10/22/3 24/21/3 23/19/3
f 23/19/3 6/20/3 10/22/3
f 14/25/3 25/24/3 24/21/3
f 24/21/3 10/22/3 14/25/3
f 18/28/3 26/27/3 25/24/3
f 25/24/3 14/25/3 18/28/3
f 22/31/3 27/30/3 26/27/3
f 26/27/3 18/28/3 22/31/3
f 3/3/4 1/1/4 28/33/4
f 28/33/4 5/34/4 3/3/4
f 5/34/4 28/33/4 29/35/4
f 29/35/4 9/36/4 5/34/4
f 9/36/4 29/35/4 30/38/4
f 30/38/4 13/39/4 9/36/4
f 13/39/4 30/38/4 31/41/4
f 31/41/4 17/42/4 13/39/4
f 17/42/4 31/41/4 32/44/4
f 32/44/4 21/45/4 17/42/4
f 21/15/5 32/1/5 27/47/5
f 27/47/5 22/48/5 21/15/5

